<svg id="Ebene_1" data-name="Ebene 1" xmlns="http://www.w3.org/2000/svg" viewBox="0 0 65.94 81.88">
  <g id="Gruppe_36" data-name="Gruppe 36">
    <rect id="Rechteck_26" data-name="Rechteck 26" x="0.61" y="74.91" width="65.33" height="6.97" fill="#ea161f"/>
    <path id="Pfad_46" data-name="Pfad 46" d="M7.6,24.91l2.17,1.5A1,1,0,0,1,10,27.66a.75.75,0,0,1-1.05.2h0l-1.32-.94V28l4.61,3.28a3,3,0,0,1,1.07,2.33v4l.06,1.47a4.61,4.61,0,0,0-2.43-1.8l-.08,3.49,3.07.5a.79.79,0,0,0,.77-.31l3.06-4.06.89.14s-.11.19-.38.61a1.82,1.82,0,0,0,0,1.92l2.52,4.08v.15a4.73,4.73,0,0,0-2.47-1.86l-.08,3.5,3,.49a.73.73,0,0,0,.78-.44l1.13-2.69c-.88-1.62-1.57-2.57-1-4.25l-2-1.27,3,.47-.16.36a3.14,3.14,0,0,0,.13,3.5c1.07,1.85,2,3.34,2.16,3.62a2,2,0,0,0,1.42,1.17c-1,0-2.2-.35-3.33,1.19l2.95,1.91,2.16-2.72a1.41,1.41,0,0,0,.31-1.05l-.78-7.21,1.27.18-.22-1.45A2.67,2.67,0,0,0,28,35.44L18.36,29v-.4a.77.77,0,0,0-.39-.7l-2.61-1.4a.92.92,0,0,0-.43-.08.9.9,0,0,0,.38-.37.92.92,0,1,0-1.64-.85.91.91,0,0,0-.08.49.78.78,0,0,0-.28-.29l-1.63-.87a.39.39,0,0,0-.55.1.41.41,0,0,0-.05.09,1.18,1.18,0,0,0-.07.2l-3.52-2V23c0,.18.11.28.11.57v1.35Zm4.08.52a.44.44,0,0,1,.44.44.45.45,0,1,1-.45-.44Z"/>
    <path id="Pfad_47" data-name="Pfad 47" d="M5.86,25.11l3.57,2.5v-.39L6.56,25a1.17,1.17,0,0,1-.25-1.63,1.22,1.22,0,0,1,.45-.36c-.85-.05-1.34.23-1.51.62S5.22,24.65,5.86,25.11Z"/>
    <path id="Pfad_48" data-name="Pfad 48" d="M12.66,33.84a2.57,2.57,0,0,0-.87-2.16L8,32.57a1.57,1.57,0,0,0-.46.2,3.45,3.45,0,0,0,.1-2.62l-.33-.53L4.55,31.84l1.88,2.73a1.73,1.73,0,0,0,1.12.72l5.11.81Z"/>
    <path id="Pfad_49" data-name="Pfad 49" d="M4.62,31.11a3.19,3.19,0,0,0-1.1-.79l.74,1.08Z"/>
    <path id="Pfad_50" data-name="Pfad 50" d="M5.2,30.63a3.15,3.15,0,0,0-1.09-.79l.73,1.08Z"/>
    <path id="Pfad_51" data-name="Pfad 51" d="M5.79,30.14a3.16,3.16,0,0,0-1.1-.78l.74,1.08Z"/>
    <path id="Pfad_52" data-name="Pfad 52" d="M6,30l.35-.29a3.06,3.06,0,0,0-1.09-.79Z"/>
    <path id="Pfad_53" data-name="Pfad 53" d="M7,29.19a3.06,3.06,0,0,0-1.09-.79l.73,1.08Z"/>
    <path id="Pfad_54" data-name="Pfad 54" d="M10.38,37.68v-.45a2.82,2.82,0,0,0-1.34.32Z"/>
    <path id="Pfad_55" data-name="Pfad 55" d="M10.36,38.44V38A2.84,2.84,0,0,0,9,38.3Z"/>
    <path id="Pfad_56" data-name="Pfad 56" d="M10.34,39.2v-.45A2.86,2.86,0,0,0,9,39.06Z"/>
    <path id="Pfad_57" data-name="Pfad 57" d="M10.33,40v-.45A2.81,2.81,0,0,0,9,39.82Z"/>
    <path id="Pfad_58" data-name="Pfad 58" d="M10.31,40.72v-.45A2.81,2.81,0,0,0,9,40.58Z"/>
    <path id="Pfad_59" data-name="Pfad 59" d="M17.77,42.34v-.45a2.86,2.86,0,0,0-1.34.31Z"/>
    <path id="Pfad_60" data-name="Pfad 60" d="M17.76,43.1v-.45a2.81,2.81,0,0,0-1.34.31Z"/>
    <path id="Pfad_61" data-name="Pfad 61" d="M17.74,43.86v-.45a2.81,2.81,0,0,0-1.34.31Z"/>
    <path id="Pfad_62" data-name="Pfad 62" d="M17.72,44.62v-.45a2.86,2.86,0,0,0-1.34.31Z"/>
    <path id="Pfad_63" data-name="Pfad 63" d="M17.7,45.38v-.46a2.93,2.93,0,0,0-1.33.32Z"/>
    <path id="Pfad_64" data-name="Pfad 64" d="M23.09,48a2.88,2.88,0,0,0-.44,1.3l.82-1.06Z"/>
    <path id="Pfad_65" data-name="Pfad 65" d="M23.72,48.43a3,3,0,0,0-.43,1.3l.81-1.06Z"/>
    <path id="Pfad_66" data-name="Pfad 66" d="M24.36,48.84a2.88,2.88,0,0,0-.44,1.3l.82-1Z"/>
    <path id="Pfad_67" data-name="Pfad 67" d="M25,49.25a2.88,2.88,0,0,0-.44,1.3l.82-1Z"/>
    <path id="Pfad_68" data-name="Pfad 68" d="M25.2,51,26,49.91l-.38-.24A3,3,0,0,0,25.2,51Z"/>
    <path id="Pfad_69" data-name="Pfad 69" d="M.61,41.58a16.72,16.72,0,0,0,33.44.26,1.13,1.13,0,0,0,0-.26V18.38H.61Zm1.22,0V38.09L25.91,54.56a15.48,15.48,0,0,1-24.08-13Zm31-7.7L11.77,19.6H32.84ZM9.59,19.6,32.83,35.35v6.23a15.55,15.55,0,0,1-5.89,12.21L1.83,36.61v-17Z"/>
    <path id="Pfad_70" data-name="Pfad 70" d="M30.85,3.05A2.52,2.52,0,0,0,30,5a1.13,1.13,0,0,0,.21.74,2.71,2.71,0,0,0-1.92,2.66,2.82,2.82,0,0,0,2.15,2.86,2.55,2.55,0,0,1-1.93.8,2.9,2.9,0,0,1-2.65-1.73,2.09,2.09,0,1,0-2.72-1.15,2,2,0,0,0,1.14,1.15A2.71,2.71,0,0,1,21.73,12a2.43,2.43,0,0,1-2.12-.9,2.8,2.8,0,0,0,2.21-2.76,2.7,2.7,0,0,0-1.88-2.68,2,2,0,0,0,.31-1.15,3.2,3.2,0,0,0-1.09-2.35l-.66-.77A13.26,13.26,0,0,1,17.33,0a13.26,13.26,0,0,1-1.17,1.41l-.66.77a3.2,3.2,0,0,0-1.09,2.35,2,2,0,0,0,.31,1.15,2.7,2.7,0,0,0-1.88,2.68,2.8,2.8,0,0,0,2.21,2.76,2.43,2.43,0,0,1-2.12.9,2.71,2.71,0,0,1-2.52-1.73,2.09,2.09,0,1,0-1.58,0A2.91,2.91,0,0,1,6.18,12a2.55,2.55,0,0,1-1.93-.8A2.82,2.82,0,0,0,6.4,8.36,2.71,2.71,0,0,0,4.49,5.7,1.11,1.11,0,0,0,4.69,5a2.55,2.55,0,0,0-.87-1.92C2.72,2.05,0,0,0,0A30.3,30.3,0,0,1,.61,5.53V17.16H34.05V5.53A31.21,31.21,0,0,1,34.66,0S31.94,2,30.85,3.05ZM24.17,8.36a.87.87,0,1,1,.87.87h0A.87.87,0,0,1,24.17,8.36Zm-15.42,0a.87.87,0,1,1,.87.87A.87.87,0,0,1,8.75,8.36ZM32.84,5.54v10.4h-31V5.54a12,12,0,0,0-.4-3L2.9,3.79a1.94,1.94,0,0,1,.57,1.3,2.09,2.09,0,0,1-.55,1.6,1.33,1.33,0,0,1,.56-.06A1.75,1.75,0,0,1,5.19,8.36a1.73,1.73,0,0,1-1.63,1.8H3.5a2.06,2.06,0,0,1-.82-.11,3.54,3.54,0,0,0,3.51,3,4,4,0,0,0,3.44-2,3.8,3.8,0,0,0,7.11-1.12,2.72,2.72,0,0,1-.94.14,1.66,1.66,0,0,1-1.73-1.59v-.1a1.69,1.69,0,0,1,1.61-1.78h.1a2.5,2.5,0,0,1,.77.09,3.31,3.31,0,0,1-.5-.62,2.29,2.29,0,0,1-.41-1.41,3.55,3.55,0,0,1,1.13-2.11c.25-.31.4-.5.56-.74h0c.17.24.31.43.57.74A3.66,3.66,0,0,1,19,4.64a2.3,2.3,0,0,1-.42,1.41,2.67,2.67,0,0,1-.5.62,2.86,2.86,0,0,1,.77-.1A1.71,1.71,0,0,1,20.6,8.26v.1A1.66,1.66,0,0,1,19,10.05h-.1a2.72,2.72,0,0,1-.94-.14A3.8,3.8,0,0,0,25,11a3.93,3.93,0,0,0,3.44,2,3.53,3.53,0,0,0,3.51-3,2.35,2.35,0,0,1-.83.12,1.73,1.73,0,0,1-1.69-1.75V8.37a1.73,1.73,0,0,1,1.71-1.73,1.3,1.3,0,0,1,.55.06,2.1,2.1,0,0,1-.55-1.6,2,2,0,0,1,.57-1.31l1.47-1.3A11.6,11.6,0,0,0,32.84,5.54Z"/>
  </g>
</svg>
